<svg width="138" height="26" viewBox="0 0 138 26" fill="none" xmlns="http://www.w3.org/2000/svg">
<path d="M0.03125 25V1.71875H9.1875C11.8333 1.71875 13.8854 2.41146 15.3438 3.79688C16.8125 5.18229 17.5469 7.02604 17.5469 9.32812C17.5469 10.9219 17.1927 12.2865 16.4844 13.4219C15.776 14.5469 14.7604 15.3906 13.4375 15.9531L18.375 25H12.9375L8.53125 16.75H4.9375V25H0.03125ZM4.9375 12.7969H8.26562C11.0781 12.7969 12.4844 11.6406 12.4844 9.32812C12.4844 8.17188 12.1354 7.28646 11.4375 6.67188C10.7396 6.05729 9.67708 5.75 8.25 5.75H4.9375V12.7969ZM24.4375 25.2969C23.6667 25.2969 23.0156 25.0365 22.4844 24.5156C21.9531 23.9844 21.6875 23.3385 21.6875 22.5781C21.6875 21.8073 21.9531 21.1615 22.4844 20.6406C23.0156 20.1198 23.6667 19.8594 24.4375 19.8594C25.2083 19.8594 25.8594 20.1198 26.3906 20.6406C26.9219 21.1615 27.1875 21.8073 27.1875 22.5781C27.1875 23.3385 26.9219 23.9844 26.3906 24.5156C25.8594 25.0365 25.2083 25.2969 24.4375 25.2969ZM39.3125 25V1.71875H48.625C51.1875 1.71875 53.1146 2.28125 54.4062 3.40625C55.6979 4.52083 56.3438 5.94792 56.3438 7.6875C56.3438 9.05208 55.9427 10.1615 55.1406 11.0156C54.349 11.8594 53.349 12.4167 52.1406 12.6875V12.9219C53.026 12.9635 53.8542 13.2135 54.625 13.6719C55.4062 14.1302 56.0365 14.776 56.5156 15.6094C57.0052 16.4323 57.25 17.4167 57.25 18.5625C57.25 19.7917 56.9479 20.8958 56.3438 21.875C55.7396 22.8438 54.8438 23.6094 53.6562 24.1719C52.4688 24.724 51 25 49.25 25H39.3125ZM47.875 11.4688C48.875 11.4688 49.7083 11.2031 50.375 10.6719C51.0417 10.1406 51.375 9.41667 51.375 8.5C51.375 7.66667 51.0781 6.99479 50.4844 6.48438C49.8906 5.96354 49.0521 5.70312 47.9688 5.70312H44.2188V11.4688H47.875ZM48.2344 20.9844C49.6094 20.9844 50.6094 20.7188 51.2344 20.1875C51.8698 19.6562 52.1875 18.9531 52.1875 18.0781C52.1875 17.1198 51.8438 16.3333 51.1562 15.7188C50.4688 15.0938 49.5365 14.7812 48.3594 14.7812H44.2188V20.9844H48.2344ZM68.3281 25.3438C66.5365 25.3438 64.9948 24.9792 63.7031 24.25C62.4115 23.5208 61.4167 22.4844 60.7188 21.1406C60.0208 19.7865 59.6719 18.1875 59.6719 16.3438C59.6719 14.5521 60.0156 12.9792 60.7031 11.625C61.401 10.2708 62.3802 9.21354 63.6406 8.45312C64.901 7.69271 66.3854 7.3125 68.0938 7.3125C69.6354 7.3125 71.026 7.64062 72.2656 8.29688C73.5156 8.95312 74.5052 9.9375 75.2344 11.25C75.974 12.5625 76.3438 14.2083 76.3438 16.1875V17.5H64.4375C64.4896 18.8229 64.875 19.8594 65.5938 20.6094C66.3125 21.3594 67.25 21.7344 68.4062 21.7344C69.2083 21.7344 69.8958 21.5625 70.4688 21.2188C71.0521 20.875 71.4688 20.375 71.7188 19.7188L76.1875 20.0156C75.8438 21.6198 74.9844 22.9115 73.6094 23.8906C72.2448 24.8594 70.4844 25.3438 68.3281 25.3438ZM64.4688 14.5156H71.7031C71.5885 13.4115 71.2344 12.5365 70.6406 11.8906C70.0469 11.2448 69.2135 10.9219 68.1406 10.9219C67.0573 10.9219 66.1979 11.2604 65.5625 11.9375C64.9375 12.6042 64.5729 13.4635 64.4688 14.5156ZM84.375 14.9062V25H79.5312V7.53125H84.2969V10.6406H84.4688C84.8646 9.61979 85.4948 8.8125 86.3594 8.21875C87.224 7.61458 88.3021 7.3125 89.5938 7.3125C91.4167 7.3125 92.875 7.90104 93.9688 9.07812C95.0729 10.2448 95.625 11.849 95.625 13.8906V25H90.7812V14.75C90.7812 13.6771 90.5052 12.8385 89.9531 12.2344C89.4115 11.6302 88.6562 11.3281 87.6875 11.3281C86.7083 11.3281 85.9115 11.6458 85.2969 12.2812C84.6823 12.9062 84.375 13.7812 84.375 14.9062ZM99.5 25V7.53125H104.344V25H99.5ZM101.922 5.29688C101.203 5.29688 100.583 5.05729 100.062 4.57812C99.5521 4.09896 99.2969 3.52083 99.2969 2.84375C99.2969 2.16667 99.5521 1.59375 100.062 1.125C100.583 0.645833 101.203 0.40625 101.922 0.40625C102.641 0.40625 103.255 0.645833 103.766 1.125C104.286 1.59375 104.547 2.16667 104.547 2.84375C104.547 3.52083 104.286 4.09896 103.766 4.57812C103.255 5.05729 102.641 5.29688 101.922 5.29688ZM117.5 7.53125V11.1875H114.188V19.625C114.188 20.7604 114.74 21.3281 115.844 21.3281C116.031 21.3281 116.234 21.3125 116.453 21.2812C116.682 21.25 116.88 21.2135 117.047 21.1719L117.812 24.7969C116.781 25.099 115.781 25.25 114.812 25.25C113.083 25.25 111.74 24.8125 110.781 23.9375C109.833 23.0625 109.359 21.8385 109.359 20.2656V11.1875H106.984V7.53125H109.359V3.375H114.188V7.53125H117.5ZM128.531 25.3438C126.771 25.3438 125.245 24.9688 123.953 24.2188C122.672 23.4583 121.682 22.4062 120.984 21.0625C120.297 19.7083 119.953 18.1354 119.953 16.3438C119.953 14.5417 120.297 12.9635 120.984 11.6094C121.682 10.2552 122.672 9.20312 123.953 8.45312C125.245 7.69271 126.771 7.3125 128.531 7.3125C130.302 7.3125 131.828 7.69271 133.109 8.45312C134.401 9.20312 135.391 10.2552 136.078 11.6094C136.776 12.9635 137.125 14.5417 137.125 16.3438C137.125 18.1354 136.776 19.7083 136.078 21.0625C135.391 22.4062 134.401 23.4583 133.109 24.2188C131.828 24.9688 130.302 25.3438 128.531 25.3438ZM124.875 16.3125C124.875 17.8333 125.182 19.0885 125.797 20.0781C126.411 21.0677 127.328 21.5625 128.547 21.5625C129.755 21.5625 130.667 21.0677 131.281 20.0781C131.896 19.0885 132.203 17.8333 132.203 16.3125C132.203 14.7917 131.896 13.5417 131.281 12.5625C130.667 11.5833 129.755 11.0938 128.547 11.0938C127.328 11.0938 126.411 11.5833 125.797 12.5625C125.182 13.5417 124.875 14.7917 124.875 16.3125Z" fill="#EAA94E"/>
<!-- https://www.figma.com/design/5m07ggk7MZH97sATdx26mp/Figma-basics?node-id=601-11&t=JcNIEFLU934oyt7H-0 -->
</svg>
